<svg width="140" height="51" viewBox="0 0 140 51" fill="none" xmlns="http://www.w3.org/2000/svg">
<path fill-rule="evenodd" clip-rule="evenodd" d="M27.6816 29.8085C28.9396 27.6455 29.66 25.1313 29.66 22.4489C29.66 14.3525 23.0966 7.78906 15.0002 7.78906C6.90377 7.78906 0.340332 14.3525 0.340332 22.4489C0.340332 30.5453 6.90377 37.1087 15.0002 37.1087C17.2421 37.1087 19.3665 36.6055 21.2665 35.7058C21.2728 35.8212 21.276 35.9374 21.276 36.0544C21.276 39.5202 18.4664 42.3299 15.0006 42.3299C13.1821 42.3299 11.5491 41.5615 10.3977 40.3201C8.9223 38.7292 6.43663 38.6357 4.84581 40.1111C3.25499 41.5865 3.16144 44.0722 4.63685 45.663C7.2127 48.4403 10.9056 50.187 15.0006 50.187C22.8058 50.187 29.1332 43.8596 29.1332 36.0544C29.1332 33.8121 28.611 31.6918 27.6816 29.8085ZM21.8029 22.4489C21.8029 26.2059 18.7572 29.2516 15.0002 29.2516C11.2431 29.2516 8.19747 26.2059 8.19747 22.4489C8.19747 18.6919 11.2431 15.6462 15.0002 15.6462C18.7572 15.6462 21.8029 18.6919 21.8029 22.4489Z" fill="#232842"/>
<path d="M52.8501 38.2789C54.2832 38.2789 55.544 37.9886 56.6324 37.4082C57.739 36.8277 58.6097 36.0204 59.2447 34.9864C59.8796 33.9705 60.197 32.8095 60.197 31.5034V17.4354H56.3875V18.9864C55.3354 17.7347 53.8932 17.1089 52.061 17.1089C50.7005 17.1089 49.485 17.4173 48.4148 18.0341C47.3445 18.6508 46.5009 19.5034 45.8842 20.5919C45.2674 21.6622 44.959 22.8957 44.959 24.2925C44.959 25.6894 45.2674 26.9411 45.8842 28.0476C46.5009 29.1361 47.3535 29.9977 48.442 30.6327C49.5304 31.2494 50.764 31.5578 52.1426 31.5578C53.8116 31.5578 55.1358 31.068 56.1154 30.0884V31.5034C56.1154 32.4649 55.8252 33.2177 55.2447 33.7619C54.6642 34.3243 53.866 34.6054 52.8501 34.6054C51.9975 34.6054 51.2628 34.4059 50.646 34.0068C50.0293 33.6077 49.6211 33.0635 49.4216 32.3742L45.6393 33.7075C45.9476 34.6327 46.4465 35.4308 47.1358 36.102C47.8433 36.7914 48.6869 37.3265 49.6665 37.7075C50.646 38.0884 51.7073 38.2789 52.8501 38.2789ZM52.7141 27.8572C51.6801 27.8572 50.8274 27.5306 50.1562 26.8776C49.5032 26.2245 49.1767 25.381 49.1767 24.347C49.1767 23.2948 49.5032 22.4422 50.1562 21.7891C50.8274 21.1179 51.6801 20.7823 52.7141 20.7823C53.7299 20.7823 54.5463 21.1089 55.163 21.7619C55.798 22.415 56.1154 23.2767 56.1154 24.347C56.1154 25.3991 55.798 26.2517 55.163 26.9048C54.5463 27.5397 53.7299 27.8572 52.7141 27.8572Z" fill="#232842"/>
<path d="M65.5151 38.3333C68.2361 38.3333 70.2044 36.7823 71.4198 33.6803L77.7871 17.4354H73.4062L69.896 26.9864L66.3858 17.4354H62.0049L67.8552 32.2925L67.5831 32.9184C67.3654 33.4082 67.0842 33.8435 66.7395 34.2245C66.3949 34.6054 65.8234 34.7959 65.0253 34.7959C64.3722 34.7959 63.7554 34.7052 63.1749 34.5238V37.8707C63.4833 38.034 63.8371 38.1519 64.2361 38.2245C64.6534 38.297 65.0797 38.3333 65.5151 38.3333Z" fill="#232842"/>
<path d="M79.5711 32.2925H83.6528V23.6123C83.6528 22.7597 83.9067 22.0794 84.4147 21.5715C84.9226 21.0454 85.5757 20.7823 86.3738 20.7823C87.172 20.7823 87.8251 21.0454 88.333 21.5715C88.841 22.0794 89.0949 22.7597 89.0949 23.6123V32.2925H93.1765V22.7415C93.1765 21.6168 92.9407 20.6372 92.4691 19.8028C91.9974 18.9502 91.3353 18.288 90.4827 17.8164C89.6482 17.3447 88.6686 17.1089 87.5439 17.1089C86.6006 17.1089 85.7661 17.2903 85.0405 17.6531C84.3149 17.9978 83.7616 18.5329 83.3806 19.2585V17.4354H79.5711V32.2925Z" fill="#232842"/>
<path d="M103.153 38.2789C104.586 38.2789 105.847 37.9886 106.935 37.4082C108.042 36.8277 108.913 36.0204 109.547 34.9864C110.182 33.9705 110.5 32.8095 110.5 31.5034V17.4354H106.69V18.9864C105.638 17.7347 104.196 17.1089 102.364 17.1089C101.003 17.1089 99.7878 17.4173 98.7176 18.0341C97.6473 18.6508 96.8037 19.5034 96.187 20.5919C95.5702 21.6622 95.2618 22.8957 95.2618 24.2925C95.2618 25.6894 95.5702 26.9411 96.187 28.0476C96.8037 29.1361 97.6563 29.9977 98.7448 30.6327C99.8332 31.2494 101.067 31.5578 102.445 31.5578C104.114 31.5578 105.439 31.068 106.418 30.0884V31.5034C106.418 32.4649 106.128 33.2177 105.547 33.7619C104.967 34.3243 104.169 34.6054 103.153 34.6054C102.3 34.6054 101.566 34.4059 100.949 34.0068C100.332 33.6077 99.9239 33.0635 99.7244 32.3742L95.9421 33.7075C96.2504 34.6327 96.7493 35.4308 97.4386 36.102C98.1461 36.7914 98.9897 37.3265 99.9692 37.7075C100.949 38.0884 102.01 38.2789 103.153 38.2789ZM103.017 27.8572C101.983 27.8572 101.13 27.5306 100.459 26.8776C99.806 26.2245 99.4795 25.381 99.4795 24.347C99.4795 23.2948 99.806 22.4422 100.459 21.7891C101.13 21.1179 101.983 20.7823 103.017 20.7823C104.033 20.7823 104.849 21.1089 105.466 21.7619C106.101 22.415 106.418 23.2767 106.418 24.347C106.418 25.3991 106.101 26.2517 105.466 26.9048C104.849 27.5397 104.033 27.8572 103.017 27.8572Z" fill="#232842"/>
<path d="M120.661 32.619C122.185 32.619 123.519 32.2925 124.661 31.6395C125.804 30.9683 126.602 30.0884 127.056 29L123.791 27.449C123.5 27.9569 123.092 28.356 122.566 28.6463C122.058 28.9365 121.441 29.0816 120.716 29.0816C119.718 29.0816 118.902 28.8005 118.267 28.2381C117.632 27.6758 117.26 26.932 117.151 26.0068H127.546C127.618 25.8073 127.664 25.5714 127.682 25.2993C127.718 25.0091 127.736 24.7188 127.736 24.4286C127.736 23.0499 127.446 21.8164 126.865 20.7279C126.303 19.6214 125.478 18.7415 124.389 18.0885C123.301 17.4354 121.967 17.1089 120.389 17.1089C118.974 17.1089 117.704 17.4445 116.58 18.1157C115.455 18.7869 114.557 19.703 113.886 20.864C113.233 22.025 112.906 23.3492 112.906 24.8368C112.906 26.2699 113.224 27.576 113.859 28.7551C114.494 29.9342 115.392 30.8776 116.553 31.585C117.714 32.2744 119.083 32.619 120.661 32.619ZM120.389 20.3742C121.224 20.3742 121.913 20.6191 122.457 21.1089C123.002 21.5987 123.319 22.2336 123.41 23.0136H117.233C117.432 22.161 117.804 21.508 118.348 21.0545C118.911 20.6009 119.591 20.3742 120.389 20.3742Z" fill="#232842"/>
<path d="M130.14 32.2925H134.221V24.2925C134.221 23.186 134.53 22.3334 135.146 21.7347C135.763 21.1179 136.57 20.8096 137.568 20.8096H138.847V17.2722H137.976C137.069 17.2722 136.262 17.4445 135.555 17.7892C134.865 18.1157 134.33 18.7415 133.949 19.6667V17.4354H130.14V32.2925Z" fill="#232842"/>
<path d="M23.8101 9.93357C23.8101 4.44741 28.2575 0 33.7436 0C33.9265 0 34.0747 0.148247 34.0747 0.331119C34.0747 5.81728 29.6273 10.2647 24.1412 10.2647C23.9583 10.2647 23.8101 10.1164 23.8101 9.93357Z" fill="#03DAC5"/>
</svg>
